<svg width="24" height="25" viewBox="0 0 24 25" fill="none" xmlns="http://www.w3.org/2000/svg">
<path d="M17 2.24072H7C4.23858 2.24072 2 4.4793 2 7.24072V17.2407C2 20.0021 4.23858 22.2407 7 22.2407H17C19.7614 22.2407 22 20.0021 22 17.2407V7.24072C22 4.4793 19.7614 2.24072 17 2.24072Z" stroke="#E4E4E4" stroke-width="2" stroke-linecap="round" stroke-linejoin="round"/>
<path d="M15.9997 11.6105C16.1231 12.4428 15.981 13.2928 15.5935 14.0396C15.206 14.7863 14.5929 15.3919 13.8413 15.7702C13.0898 16.1485 12.2382 16.2801 11.4075 16.1465C10.5768 16.0128 9.80947 15.6206 9.21455 15.0257C8.61962 14.4308 8.22744 13.6634 8.09377 12.8327C7.96011 12.0021 8.09177 11.1504 8.47003 10.3989C8.84829 9.64739 9.45389 9.03428 10.2007 8.64678C10.9475 8.25928 11.7975 8.11712 12.6297 8.24054C13.4786 8.36642 14.2646 8.762 14.8714 9.36884C15.4782 9.97569 15.8738 10.7616 15.9997 11.6105Z" stroke="#E4E4E4" stroke-width="2" stroke-linecap="round" stroke-linejoin="round"/>
<path d="M17.5 6.74072H17.51" stroke="#E4E4E4" stroke-width="2" stroke-linecap="round" stroke-linejoin="round"/>
</svg>
